<?xml version="1.0" encoding="utf-8"?>
<!-- Generator: Adobe Illustrator 16.0.4, SVG Export Plug-In . SVG Version: 6.00 Build 0)  -->
<!DOCTYPE svg PUBLIC "-//W3C//DTD SVG 1.1//EN" "http://www.w3.org/Graphics/SVG/1.1/DTD/svg11.dtd">
<svg version="1.1" id="Layer_1" xmlns="http://www.w3.org/2000/svg" xmlns:xlink="http://www.w3.org/1999/xlink" x="0px" y="0px"
	 width="254.105px" height="87.819px" viewBox="0 0 254.105 87.819" enable-background="new 0 0 254.105 87.819"
	 xml:space="preserve">
<text transform="matrix(1 0 0 1 51.5786 86.8066)" font-family="'Roboto-Light'" font-size="86">lefine</text>
<g>
	<path fill-rule="evenodd" clip-rule="evenodd" d="M50.792,39.795c3.536,13.288,2.1,25.908-5.838,37.271
		C34.86,91.516,17.483,91.333,7.382,76.938c-10.29-14.665-9.769-37.327,1.229-50.97c4.955-6.146,11.182-9.733,19.325-9.147
		c2.104,0.151,4.182,0.358,4.759-2.439c0.763-0.134,1.129,0.361,1.46,0.917c0.704,1.892,2.275,2.932,3.805,4.083
		c5.821,4.378,10.589,9.586,12.68,16.813C51.154,37.375,50.01,38.623,50.792,39.795z"/>
	<path fill-rule="evenodd" clip-rule="evenodd" d="M33.419,15.144c-0.241-0.254-0.482-0.508-0.724-0.762
		c3.056-8.688,10.51-13.528,19.108-12.405c8.168,1.067,14.732,7.996,15.612,16.481c0.837,8.062-4.653,16.051-12.737,18.801
		c-1.422,0.484-3.797-0.134-3.886,2.536c-1.166-0.915-0.63-2.187-0.694-3.331c1.038-1.512,2.838-1.341,4.289-1.909
		c7.907-3.101,12.255-11.557,9.776-19.141C61.514,7.312,53.328,2.94,44.895,5.241c-3.868,1.055-6.379,3.929-8.692,7.018
		C35.405,13.324,35.454,15.268,33.419,15.144z"/>
	<path fill-rule="evenodd" clip-rule="evenodd" fill="#F1BC1A" d="M33.419,15.144C36.26,9.042,40.176,4.212,47.458,3.593
		c9.577-0.813,17.555,5.381,18.328,14.138c0.905,10.259-5.432,17.824-15.688,18.732c-3.484-7.44-7.717-14.236-15.5-17.929
		C33.014,17.783,33.469,16.392,33.419,15.144z"/>
	<path fill-rule="evenodd" clip-rule="evenodd" fill="#F1BC1A" d="M29.747,19.705c3.072-0.265,4.66,0.944,5.846,3.297
		c9.678,19.213-4.294,44.743-25.572,46.629c-0.87,0.077-1.753,0.001-2.624,0.077c-1.717,0.151-2.475-0.995-2.607-2.333
		c-0.203-2.037,1.563-1.218,2.506-1.322c15.507-1.713,25.348-11.13,27.401-26.567c0.773-5.813-0.748-11.313-3.288-16.537
		C30.925,21.954,30.401,20.978,29.747,19.705z"/>
	<path fill-rule="evenodd" clip-rule="evenodd" fill="#F1BC1A" d="M20.531,20.207c2.321-1.749,4.053-1.44,5.615,0.782
		c5.726,8.146,7.14,16.851,3.158,26.103C25.39,56.186,18.232,61.124,8.567,62.527c-1.143,0.166-2.329,0.047-3.494,0.021
		c-1.665-0.036-2.322-1.052-2.286-2.577c0.043-1.842,1.464-1.495,2.557-1.442c5.654,0.273,10.654-1.343,14.883-5.151
		c9.047-8.149,9.997-21.155,2.274-30.815C21.875,21.78,21.216,21.025,20.531,20.207z"/>
	<path fill-rule="evenodd" clip-rule="evenodd" fill="#F1BC1A" d="M24.46,36.269c0.065,10.365-8.294,18.999-17.965,19.153
		c-0.725,0.012-1.465-0.016-2.177-0.146c-1.413-0.259-2.465-0.872-2.304-2.604c0.17-1.824,1.499-1.501,2.605-1.408
		c3.788,0.319,7.254-0.436,10.282-2.846c6.974-5.553,7.499-15.431,1.268-22.092c-0.808-0.865-3.179-1.457-1.514-3.333
		c1.717-1.936,3.053-0.401,4.364,0.848C22.746,27.394,24.024,31.955,24.46,36.269z"/>
	<path fill-rule="evenodd" clip-rule="evenodd" fill="#F1BC1A" d="M6.151,47.901c-1.344-0.294-3.591,0.575-3.492-2.375
		c0.093-2.76,2.033-1.397,3.178-1.378c3.323,0.056,5.729-1.408,6.93-4.379c1.24-3.067,0.864-6.079-1.796-8.404
		c-1.175-1.028-3.12-1.758-1.129-3.64c1.793-1.694,2.93,0.068,4.002,1.077c3.338,3.137,4.293,8.226,2.494,12.528
		C14.642,45.387,10.766,47.938,6.151,47.901z"/>
	<path fill-rule="evenodd" clip-rule="evenodd" fill="#F1BC1A" d="M9.941,37.128c-0.224,2.086-1.343,3.56-3.862,3.526
		c-1.086-0.015-2.26-0.369-1.869-1.744c0.607-2.135,0.581-5.106,3.25-5.572C9.044,33.062,9.92,35.07,9.941,37.128z"/>
</g>
</svg>
