<?xml version="1.0" encoding="utf-8"?>
<!-- Generator: Adobe Illustrator 16.0.4, SVG Export Plug-In . SVG Version: 6.00 Build 0)  -->
<!DOCTYPE svg PUBLIC "-//W3C//DTD SVG 1.1//EN" "http://www.w3.org/Graphics/SVG/1.1/DTD/svg11.dtd">
<svg version="1.1" id="Layer_1" xmlns="http://www.w3.org/2000/svg" xmlns:xlink="http://www.w3.org/1999/xlink" x="0px" y="0px"
	 width="65.624px" height="85.534px" viewBox="0 2.284 65.624 85.534" enable-background="new 0 2.284 65.624 85.534"
	 xml:space="preserve">
<g>
	<path fill="#455A64" d="M50.792,39.795c3.536,13.288,2.101,25.908-5.838,37.271C34.86,91.516,17.483,91.333,7.382,76.938
		c-10.29-14.665-9.77-37.327,1.229-50.97c4.955-6.146,11.183-9.733,19.325-9.147c2.104,0.151,3.459-1.115,4.634-2.115
		c0.764-0.134,0.651-0.383,0.982,0.173c0.704,1.893,2.878,3.354,4.407,4.504c5.82,4.379,10.589,9.587,12.681,16.812
		C50.722,37.461,50.01,38.623,50.792,39.795z"/>
	<path fill="#455A64" d="M34.078,16.659c-0.229-0.241-1.278-1.713-1.508-1.954c2.902-8.252,9.981-12.848,18.147-11.782
		c7.757,1.015,13.991,7.595,14.827,15.653c0.794,7.656-4.418,15.244-12.097,17.855c-1.351,0.46-3.606-0.127-3.69,2.408
		c-1.107-0.868-0.598-2.077-0.658-3.163c0.986-1.437,2.695-1.273,4.073-1.813c7.509-2.945,11.639-10.976,9.284-18.178
		C59.94,7.99,52.165,3.838,44.157,6.024c-3.675,1.001-6.06,3.73-8.256,6.665C35.144,13.699,36.01,16.776,34.078,16.659z"/>
	<path fill="#FFAB00" d="M34.1,15.184c2.628-5.644,6.25-10.11,12.985-10.684c8.857-0.752,16.236,4.978,16.951,13.076
		c0.837,9.488-5.024,16.485-14.51,17.326c-3.223-6.881-7.138-13.167-14.336-16.583C33.726,17.626,34.147,16.34,34.1,15.184z"/>
	<path fill="#FFAB00" d="M29.747,19.705c3.071-0.266,4.66,0.943,5.846,3.297c9.679,19.213-4.294,44.743-25.571,46.629
		c-0.87,0.077-1.753,0.001-2.624,0.077c-1.717,0.15-2.476-0.995-2.606-2.333c-0.203-2.037,1.562-1.219,2.506-1.321
		c15.508-1.714,25.349-11.131,27.4-26.567c0.773-5.812-0.747-11.312-3.287-16.537C30.925,21.954,30.401,20.978,29.747,19.705z"/>
	<path fill="#FFAB00" d="M20.531,20.207c2.321-1.749,4.054-1.439,5.615,0.781c5.727,8.146,7.141,16.852,3.158,26.104
		C25.39,56.186,18.232,61.124,8.567,62.527c-1.144,0.166-2.329,0.047-3.493,0.021c-1.665-0.035-2.322-1.052-2.286-2.576
		c0.043-1.843,1.464-1.495,2.558-1.442c5.653,0.273,10.653-1.343,14.883-5.15c9.047-8.148,9.997-21.154,2.273-30.814
		C21.875,21.78,21.216,21.025,20.531,20.207z"/>
	<path fill="#FFAB00" d="M24.46,36.269c0.064,10.365-8.294,18.999-17.965,19.152c-0.726,0.013-1.466-0.017-2.178-0.146
		c-1.413-0.259-2.465-0.872-2.304-2.604c0.17-1.823,1.499-1.501,2.604-1.407c3.787,0.318,7.254-0.437,10.281-2.847
		c6.975-5.554,7.499-15.432,1.269-22.092c-0.809-0.865-3.18-1.457-1.515-3.333c1.718-1.937,3.054-0.401,4.364,0.848
		C22.746,27.394,24.024,31.955,24.46,36.269z"/>
	<path fill="#FFAB00" d="M6.151,47.901c-1.344-0.294-3.591,0.575-3.491-2.375c0.093-2.76,2.032-1.396,3.178-1.378
		c3.323,0.057,5.729-1.408,6.931-4.379c1.239-3.066,0.863-6.079-1.796-8.404c-1.176-1.027-3.12-1.758-1.13-3.64
		c1.793-1.694,2.931,0.067,4.003,1.077c3.338,3.137,4.293,8.226,2.493,12.527C14.642,45.387,10.766,47.938,6.151,47.901z"/>
	<path fill="#FFAB00" d="M9.941,37.128c-0.225,2.086-1.343,3.561-3.861,3.525c-1.086-0.015-2.261-0.368-1.869-1.743
		c0.606-2.136,0.581-5.105,3.25-5.572C9.044,33.062,9.92,35.07,9.941,37.128z"/>
</g>
</svg>
