<?xml version="1.0" encoding="utf-8"?>
<!-- Generator: Adobe Illustrator 16.0.4, SVG Export Plug-In . SVG Version: 6.00 Build 0)  -->
<!DOCTYPE svg PUBLIC "-//W3C//DTD SVG 1.1//EN" "http://www.w3.org/Graphics/SVG/1.1/DTD/svg11.dtd">
<svg version="1.1" id="Layer_1" xmlns="http://www.w3.org/2000/svg" xmlns:xlink="http://www.w3.org/1999/xlink" x="0px" y="0px"
	 width="281.553px" height="87.818px" viewBox="0 0 281.553 87.818" enable-background="new 0 0 281.553 87.818"
	 xml:space="preserve">
<text transform="matrix(1 0 0 1 50.9998 86.3987)" fill="#455A64" font-family="'Roboto-Thin'" font-size="97">lefine</text>
<g>
	<path fill="#455A64" d="M50.792,39.795c3.536,13.288,2.101,25.908-5.838,37.271C34.86,91.516,17.483,91.333,7.382,76.938
		c-10.29-14.665-9.769-37.327,1.229-50.97c4.955-6.146,11.182-9.733,19.325-9.147c2.104,0.151,3.459-1.115,4.634-2.115
		c0.763-0.134,0.651-0.383,0.982,0.173c0.704,1.892,2.878,3.353,4.407,4.504c5.821,4.378,10.589,9.586,12.681,16.812
		C51.154,37.375,50.01,38.623,50.792,39.795z"/>
	<path fill="#455A64" d="M33.258,15.428c-0.229-0.241-0.458-0.482-0.688-0.723c2.902-8.252,9.981-12.848,18.147-11.782
		c7.757,1.014,13.991,7.594,14.827,15.653c0.794,7.656-4.418,15.244-12.096,17.855c-1.351,0.46-3.607-0.127-3.691,2.409
		c-1.107-0.869-0.598-2.078-0.658-3.164c0.986-1.436,2.695-1.273,4.073-1.813c7.509-2.945,11.639-10.976,9.284-18.178
		C59.94,7.99,52.165,3.838,44.157,6.024c-3.674,1.001-6.059,3.731-8.255,6.665C35.144,13.699,35.19,15.546,33.258,15.428z"/>
	<path fill="#FFAB00" d="M34.1,15.184c2.628-5.643,6.25-10.11,12.985-10.683c8.858-0.752,16.237,4.977,16.951,13.076
		c0.837,9.488-5.024,16.485-14.509,17.326c-3.223-6.881-7.138-13.167-14.336-16.583C33.726,17.626,34.147,16.34,34.1,15.184z"/>
	<path fill="#FFAB00" d="M29.747,19.705c3.072-0.266,4.66,0.943,5.846,3.297c9.679,19.213-4.294,44.743-25.571,46.629
		c-0.87,0.077-1.753,0.001-2.624,0.077c-1.717,0.15-2.476-0.995-2.607-2.333c-0.203-2.037,1.563-1.219,2.506-1.322
		c15.508-1.713,25.349-11.13,27.401-26.567c0.773-5.812-0.748-11.312-3.288-16.537C30.925,21.954,30.401,20.978,29.747,19.705z"/>
	<path fill="#FFAB00" d="M20.531,20.207c2.321-1.749,4.053-1.44,5.615,0.781c5.726,8.146,7.14,16.852,3.158,26.104
		C25.39,56.186,18.232,61.124,8.567,62.527c-1.144,0.166-2.329,0.047-3.494,0.021c-1.665-0.036-2.322-1.052-2.286-2.577
		c0.043-1.842,1.464-1.495,2.558-1.442c5.653,0.273,10.653-1.343,14.883-5.15c9.047-8.149,9.997-21.155,2.273-30.815
		C21.875,21.78,21.216,21.025,20.531,20.207z"/>
	<path fill="#FFAB00" d="M24.46,36.269c0.065,10.365-8.294,18.999-17.965,19.153c-0.725,0.012-1.465-0.017-2.177-0.146
		c-1.413-0.259-2.465-0.872-2.304-2.604c0.17-1.824,1.499-1.501,2.604-1.408c3.788,0.319,7.254-0.436,10.282-2.846
		c6.974-5.554,7.499-15.432,1.268-22.092c-0.808-0.865-3.179-1.457-1.514-3.333c1.717-1.937,3.053-0.401,4.364,0.848
		C22.746,27.394,24.024,31.955,24.46,36.269z"/>
	<path fill="#FFAB00" d="M6.151,47.901c-1.344-0.294-3.591,0.575-3.492-2.375c0.093-2.76,2.033-1.396,3.178-1.378
		c3.323,0.057,5.729-1.408,6.931-4.379c1.239-3.066,0.863-6.079-1.796-8.404c-1.176-1.027-3.12-1.758-1.13-3.64
		c1.793-1.694,2.931,0.068,4.003,1.077c3.338,3.137,4.293,8.226,2.493,12.528C14.642,45.387,10.766,47.938,6.151,47.901z"/>
	<path fill="#FFAB00" d="M9.941,37.128c-0.225,2.086-1.343,3.56-3.862,3.525c-1.086-0.015-2.26-0.368-1.869-1.743
		c0.607-2.136,0.581-5.106,3.25-5.572C9.044,33.062,9.92,35.07,9.941,37.128z"/>
</g>
</svg>
