<?xml version="1.0" encoding="utf-8"?>
<!-- Generator: Adobe Illustrator 16.0.4, SVG Export Plug-In . SVG Version: 6.00 Build 0)  -->
<!DOCTYPE svg PUBLIC "-//W3C//DTD SVG 1.1//EN" "http://www.w3.org/Graphics/SVG/1.1/DTD/svg11.dtd">
<svg version="1.1" id="Layer_1" xmlns="http://www.w3.org/2000/svg" xmlns:xlink="http://www.w3.org/1999/xlink" x="0px" y="0px"
	 width="254.105px" height="87.818px" viewBox="0 0 254.105 87.818" enable-background="new 0 0 254.105 87.818"
	 xml:space="preserve">
<text transform="matrix(1 0 0 1 51.5789 86.8059)" font-family="'Roboto-Light'" font-size="86">lefine</text>
<g>
	<path d="M50.792,39.795c3.536,13.288,2.101,25.908-5.838,37.271C34.86,91.516,17.483,91.333,7.382,76.938
		c-10.29-14.665-9.769-37.327,1.229-50.97c4.955-6.146,11.182-9.733,19.325-9.147c2.104,0.151,4.182,0.358,4.759-2.438
		c0.763-0.134,1.129,0.361,1.46,0.917c0.704,1.892,2.275,2.932,3.805,4.083c5.821,4.378,10.589,9.586,12.681,16.812
		C51.154,37.375,50.01,38.623,50.792,39.795z"/>
	<path d="M33.419,15.144c-0.24-0.254-0.481-0.508-0.724-0.762c3.056-8.688,10.51-13.528,19.108-12.405
		c8.168,1.067,14.731,7.996,15.611,16.481c0.837,8.062-4.652,16.051-12.736,18.801c-1.423,0.484-3.798-0.134-3.887,2.536
		c-1.166-0.915-0.63-2.188-0.693-3.331c1.038-1.512,2.838-1.341,4.289-1.909c7.906-3.101,12.255-11.557,9.775-19.141
		C61.514,7.312,53.328,2.94,44.895,5.241c-3.868,1.055-6.379,3.929-8.692,7.018C35.405,13.323,35.454,15.268,33.419,15.144z"/>
	<path fill="#38772B" d="M33.419,15.144C36.26,9.042,40.176,4.212,47.458,3.593c9.577-0.813,17.556,5.381,18.328,14.138
		c0.905,10.259-5.432,17.824-15.688,18.732c-3.484-7.44-7.718-14.236-15.5-17.929C33.014,17.783,33.469,16.392,33.419,15.144z"/>
	<path fill="#38772B" d="M29.747,19.705c3.072-0.266,4.66,0.943,5.846,3.297c9.679,19.213-4.294,44.743-25.571,46.629
		c-0.87,0.077-1.753,0.001-2.624,0.077c-1.717,0.15-2.476-0.995-2.607-2.333c-0.203-2.037,1.563-1.219,2.506-1.322
		c15.508-1.713,25.349-11.13,27.401-26.567c0.773-5.812-0.748-11.312-3.288-16.537C30.925,21.954,30.401,20.978,29.747,19.705z"/>
	<path fill="#38772B" d="M20.531,20.207c2.321-1.749,4.053-1.44,5.615,0.781c5.726,8.146,7.14,16.852,3.158,26.104
		C25.39,56.186,18.232,61.124,8.567,62.527c-1.144,0.166-2.329,0.047-3.494,0.021c-1.665-0.036-2.322-1.052-2.286-2.577
		c0.043-1.842,1.464-1.495,2.558-1.442c5.653,0.273,10.653-1.343,14.883-5.15c9.047-8.149,9.997-21.155,2.273-30.815
		C21.875,21.78,21.216,21.025,20.531,20.207z"/>
	<path fill="#38772B" d="M24.46,36.269c0.065,10.365-8.294,18.999-17.965,19.153c-0.725,0.012-1.465-0.017-2.177-0.146
		c-1.413-0.259-2.465-0.872-2.304-2.604c0.17-1.824,1.499-1.501,2.604-1.408c3.788,0.319,7.254-0.436,10.282-2.846
		c6.974-5.554,7.499-15.432,1.268-22.092c-0.808-0.865-3.179-1.457-1.514-3.333c1.717-1.937,3.053-0.401,4.364,0.848
		C22.746,27.394,24.024,31.955,24.46,36.269z"/>
	<path fill="#38772B" d="M6.151,47.901c-1.344-0.294-3.591,0.575-3.492-2.375c0.093-2.76,2.033-1.396,3.178-1.378
		c3.323,0.057,5.729-1.408,6.931-4.379c1.239-3.066,0.863-6.079-1.796-8.404c-1.176-1.027-3.12-1.758-1.13-3.64
		c1.793-1.694,2.931,0.068,4.003,1.077c3.338,3.137,4.293,8.226,2.493,12.528C14.642,45.387,10.766,47.938,6.151,47.901z"/>
	<path fill="#38772B" d="M9.941,37.128c-0.225,2.086-1.343,3.56-3.862,3.525c-1.086-0.015-2.26-0.368-1.869-1.743
		c0.607-2.136,0.581-5.106,3.25-5.572C9.044,33.062,9.92,35.07,9.941,37.128z"/>
</g>
</svg>
